<?xml version="1.0" encoding="utf-8"?>
<!-- Generator: Adobe Illustrator 18.1.1, SVG Export Plug-In . SVG Version: 6.00 Build 0)  -->
<svg version="1.1" id="Ebene_1" xmlns="http://www.w3.org/2000/svg" xmlns:xlink="http://www.w3.org/1999/xlink" x="0px" y="0px"
	 viewBox="0 0 1024 1024" enable-background="new 0 0 1024 1024" xml:space="preserve">
<g>
	<path fill="#FFFFFF" d="M693.9,291.1l-182,182L261.2,222.5c-50.3-50.3-50.3-131.8,0-182c50.3-50.3,131.8-50.3,182,0L693.9,291.1z"
		/>
	<path fill="#FFFFFF" d="M513.2,475.9l-182-182L581.8,43.2c50.3-50.3,131.8-50.3,182,0c50.3,50.3,50.3,131.8,0,182L513.2,475.9z"/>
	<path fill="#FFFFFF" d="M476.2,510l-182,182L43.5,441.4c-50.3-50.3-50.3-131.8,0-182c50.3-50.3,131.8-50.3,182,0L476.2,510z"/>
	<path fill="#FFFFFF" d="M294.2,329.3l182,182L225.6,762c-50.3,50.3-131.8,50.3-182,0c-50.3-50.3-50.3-131.8,0-182L294.2,329.3z"/>
	<path fill="#FFFFFF" d="M330.1,732.9l182-182l250.7,250.7c50.3,50.3,50.3,131.8,0,182c-50.3,50.3-131.8,50.3-182,0L330.1,732.9z"/>
	<path fill="#FFFFFF" d="M510.8,548.1l182,182L442.2,980.8c-50.3,50.3-131.8,50.3-182,0c-50.3-50.3-50.3-131.8,0-182L510.8,548.1z"
		/>
	<path fill="#FFFFFF" d="M547.8,514l182-182l250.7,250.7c50.3,50.3,50.3,131.8,0,182c-50.3,50.3-131.8,50.3-182,0L547.8,514z"/>
	<path fill="#FFFFFF" d="M727.1,694.7l-182-182L795.7,262c50.3-50.3,131.8-50.3,182,0c50.3,50.3,50.3,131.8,0,182L727.1,694.7z"/>
</g>
</svg>
