<?xml version="1.0" encoding="utf-8"?>
<!-- Generator: Adobe Illustrator 18.1.1, SVG Export Plug-In . SVG Version: 6.00 Build 0)  -->
<svg version="1.1" xmlns="http://www.w3.org/2000/svg" xmlns:xlink="http://www.w3.org/1999/xlink" x="0px" y="0px"
	 viewBox="0 0 1024 1024" enable-background="new 0 0 1024 1024" xml:space="preserve">
<g id="Ebene_2" display="none">
	<rect x="1.1" display="inline" width="1022.9" height="1022.9"/>
</g>
<g id="Ebene_1">
	<g>
		<g>
			<defs>
				<rect id="SVGID_1_" x="1.1" width="1022.9" height="1022.9"/>
			</defs>
			<clipPath id="SVGID_2_">
				<use xlink:href="#SVGID_1_"  overflow="visible"/>
			</clipPath>
			<g clip-path="url(#SVGID_2_)">
				<defs>
					<rect id="SVGID_3_" x="1.1" width="1022.9" height="1022.9"/>
				</defs>
				<clipPath id="SVGID_4_">
					<use xlink:href="#SVGID_3_"  overflow="visible"/>
				</clipPath>
				<g clip-path="url(#SVGID_4_)">
					<defs>
						<rect id="SVGID_5_" x="1.1" width="1022.9" height="1022.9"/>
					</defs>
					<clipPath id="SVGID_6_">
						<use xlink:href="#SVGID_5_"  overflow="visible"/>
					</clipPath>
					<g display="none" opacity="0.62" clip-path="url(#SVGID_6_)">
						<g display="inline">
							<defs>
								<rect id="SVGID_7_" x="156.2" y="-42.8" width="618.6" height="616.1"/>
							</defs>
							<clipPath id="SVGID_8_">
								<use xlink:href="#SVGID_7_"  overflow="visible"/>
							</clipPath>
							<g clip-path="url(#SVGID_8_)">
								<defs>
									<rect id="SVGID_9_" x="156.2" y="-42.8" width="618.6" height="616.1"/>
								</defs>
								<clipPath id="SVGID_10_">
									<use xlink:href="#SVGID_9_"  overflow="visible"/>
								</clipPath>
								<g clip-path="url(#SVGID_10_)">
									
										<image overflow="visible" width="250" height="249" xlink:href="A8146AC0ADE13C08.png"  transform="matrix(2.4745 0 0 2.4745 156.1932 -42.8292)">
									</image>
								</g>
							</g>
						</g>
					</g>
					<path clip-path="url(#SVGID_6_)" fill="#FFFFFF" d="M675.9,313L512.4,476.5L287.3,251.4c-45.2-45.2-45.2-118.4,0-163.5
						s118.4-45.2,163.5,0L675.9,313z"/>
					<g display="none" opacity="0.62" clip-path="url(#SVGID_6_)">
						<g display="inline">
							<defs>
								<rect id="SVGID_11_" x="252.7" y="-40.4" width="618.6" height="616.1"/>
							</defs>
							<clipPath id="SVGID_12_">
								<use xlink:href="#SVGID_11_"  overflow="visible"/>
							</clipPath>
							<g clip-path="url(#SVGID_12_)">
								<defs>
									<rect id="SVGID_13_" x="252.7" y="-40.4" width="618.6" height="616.1"/>
								</defs>
								<clipPath id="SVGID_14_">
									<use xlink:href="#SVGID_13_"  overflow="visible"/>
								</clipPath>
								<g transform="matrix(1 0 0 1 1.525879e-05 3.814697e-06)" clip-path="url(#SVGID_14_)">
									
										<image overflow="visible" width="250" height="249" xlink:href="A8146AC0ADE13C09.png"  transform="matrix(2.4745 0 0 2.4745 252.6981 -40.3547)">
									</image>
								</g>
							</g>
						</g>
					</g>
					<path clip-path="url(#SVGID_6_)" fill="#FFFFFF" d="M513.6,479L350.1,315.5L575.2,90.4c45.2-45.2,118.4-45.2,163.5,0
						c45.2,45.2,45.2,118.4,0,163.5L513.6,479z"/>
					<g display="none" opacity="0.62" clip-path="url(#SVGID_6_)">
						<g display="inline">
							<defs>
								<rect id="SVGID_15_" x="-39.3" y="152.7" width="618.6" height="618.6"/>
							</defs>
							<clipPath id="SVGID_16_">
								<use xlink:href="#SVGID_15_"  overflow="visible"/>
							</clipPath>
							<g clip-path="url(#SVGID_16_)">
								<defs>
									<rect id="SVGID_17_" x="-39.3" y="152.7" width="618.6" height="618.6"/>
								</defs>
								<clipPath id="SVGID_18_">
									<use xlink:href="#SVGID_17_"  overflow="visible"/>
								</clipPath>
								<g clip-path="url(#SVGID_18_)">
									
										<image overflow="visible" width="250" height="250" xlink:href="A8146AC0ADE13C0F.png"  transform="matrix(2.4745 0 0 2.4745 -39.2912 152.6552)">
									</image>
								</g>
							</g>
						</g>
					</g>
					<path clip-path="url(#SVGID_6_)" fill="#FFFFFF" d="M480.4,509.7L316.9,673.2L91.7,448c-45.2-45.2-45.2-118.4,0-163.5
						c45.2-45.2,118.4-45.2,163.5,0L480.4,509.7z"/>
					<g display="none" opacity="0.62" clip-path="url(#SVGID_6_)">
						<g display="inline">
							<defs>
								<rect id="SVGID_19_" x="-39.3" y="249.2" width="618.6" height="618.6"/>
							</defs>
							<clipPath id="SVGID_20_">
								<use xlink:href="#SVGID_19_"  overflow="visible"/>
							</clipPath>
							<g clip-path="url(#SVGID_20_)">
								<defs>
									<rect id="SVGID_21_" x="-39.3" y="249.2" width="618.6" height="618.6"/>
								</defs>
								<clipPath id="SVGID_22_">
									<use xlink:href="#SVGID_21_"  overflow="visible"/>
								</clipPath>
								<g clip-path="url(#SVGID_22_)">
									
										<image overflow="visible" width="250" height="250" xlink:href="A8146AC0ADE13C0A.png"  transform="matrix(2.4745 0 0 2.4745 -39.2912 249.1601)">
									</image>
								</g>
							</g>
						</g>
					</g>
					<path clip-path="url(#SVGID_6_)" fill="#FFFFFF" d="M316.9,347.3l163.5,163.5L255.2,736c-45.2,45.2-118.4,45.2-163.5,0
						c-45.2-45.2-45.2-118.4,0-163.5L316.9,347.3z"/>
					<g display="none" opacity="0.62" clip-path="url(#SVGID_6_)">
						<g display="inline">
							<defs>
								<rect id="SVGID_23_" x="250.2" y="449.6" width="618.6" height="616.1"/>
							</defs>
							<clipPath id="SVGID_24_">
								<use xlink:href="#SVGID_23_"  overflow="visible"/>
							</clipPath>
							<g clip-path="url(#SVGID_24_)">
								<defs>
									<rect id="SVGID_25_" x="250.2" y="449.6" width="618.6" height="616.1"/>
								</defs>
								<clipPath id="SVGID_26_">
									<use xlink:href="#SVGID_25_"  overflow="visible"/>
								</clipPath>
								<g transform="matrix(1 0 0 1 0 3.051758e-05)" clip-path="url(#SVGID_26_)">
									
										<image overflow="visible" width="250" height="249" xlink:href="A8146AC0ADE13C0B.png"  transform="matrix(2.4745 0 0 2.4745 250.2236 449.5934)">
									</image>
								</g>
							</g>
						</g>
					</g>
					<path clip-path="url(#SVGID_6_)" fill="#FFFFFF" d="M349.1,709.9l163.5-163.5l225.1,225.1c45.2,45.2,45.2,118.4,0,163.5
						c-45.2,45.2-118.4,45.2-163.5,0L349.1,709.9z"/>
					<g display="none" opacity="0.62" clip-path="url(#SVGID_6_)">
						<g display="inline">
							<defs>
								<rect id="SVGID_27_" x="153.7" y="447.1" width="618.6" height="616.1"/>
							</defs>
							<clipPath id="SVGID_28_">
								<use xlink:href="#SVGID_27_"  overflow="visible"/>
							</clipPath>
							<g clip-path="url(#SVGID_28_)">
								<defs>
									<rect id="SVGID_29_" x="153.7" y="447.1" width="618.6" height="616.1"/>
								</defs>
								<clipPath id="SVGID_30_">
									<use xlink:href="#SVGID_29_"  overflow="visible"/>
								</clipPath>
								<g clip-path="url(#SVGID_30_)">
									
										<image overflow="visible" width="250" height="249" xlink:href="A8146AC0ADE13C06.png"  transform="matrix(2.4745 0 0 2.4745 153.7187 447.1189)">
									</image>
								</g>
							</g>
						</g>
					</g>
					<path clip-path="url(#SVGID_6_)" fill="#FFFFFF" d="M511.5,543.9L675,707.4L449.8,932.5c-45.2,45.2-118.4,45.2-163.5,0
						s-45.2-118.4,0-163.5L511.5,543.9z"/>
					<g display="none" opacity="0.62" clip-path="url(#SVGID_6_)">
						<g display="inline">
							<defs>
								<rect id="SVGID_31_" x="445.7" y="251.6" width="618.6" height="618.6"/>
							</defs>
							<clipPath id="SVGID_32_">
								<use xlink:href="#SVGID_31_"  overflow="visible"/>
							</clipPath>
							<g clip-path="url(#SVGID_32_)">
								<defs>
									<rect id="SVGID_33_" x="445.7" y="251.6" width="618.6" height="618.6"/>
								</defs>
								<clipPath id="SVGID_34_">
									<use xlink:href="#SVGID_33_"  overflow="visible"/>
								</clipPath>
								<g clip-path="url(#SVGID_34_)">
									
										<image overflow="visible" width="250" height="250" xlink:href="A8146AC0ADE13C07.png"  transform="matrix(2.4745 0 0 2.4745 445.7079 251.6346)">
									</image>
								</g>
							</g>
						</g>
					</g>
					<path clip-path="url(#SVGID_6_)" fill="#FFFFFF" d="M544.7,513.2l163.5-163.5l225.1,225.1c45.2,45.2,45.2,118.4,0,163.5
						c-45.2,45.2-118.4,45.2-163.5,0L544.7,513.2z"/>
					<g display="none" opacity="0.62" clip-path="url(#SVGID_6_)">
						<g display="inline">
							<defs>
								<rect id="SVGID_35_" x="443.2" y="155.1" width="618.6" height="618.6"/>
							</defs>
							<clipPath id="SVGID_36_">
								<use xlink:href="#SVGID_35_"  overflow="visible"/>
							</clipPath>
							<g clip-path="url(#SVGID_36_)">
								<defs>
									<rect id="SVGID_37_" x="443.2" y="155.1" width="618.6" height="618.6"/>
								</defs>
								<clipPath id="SVGID_38_">
									<use xlink:href="#SVGID_37_"  overflow="visible"/>
								</clipPath>
								<g transform="matrix(1 0 0 1 -3.051758e-05 0)" clip-path="url(#SVGID_38_)">
									
										<image overflow="visible" width="250" height="250" xlink:href="A8146AC0ADE13C18.png"  transform="matrix(2.4745 0 0 2.4745 443.2335 155.1296)">
									</image>
								</g>
							</g>
						</g>
					</g>
					<path clip-path="url(#SVGID_6_)" fill="#FFFFFF" d="M705.7,675.6L542.2,512.1l225.1-225.1c45.2-45.2,118.4-45.2,163.5,0
						c45.2,45.2,45.2,118.4,0,163.5L705.7,675.6z"/>
				</g>
			</g>
		</g>
	</g>
</g>
</svg>
