<?xml version="1.0" encoding="utf-8"?>
<!-- Generator: Adobe Illustrator 18.1.1, SVG Export Plug-In . SVG Version: 6.00 Build 0)  -->
<svg version="1.1" id="Ebene_1" xmlns="http://www.w3.org/2000/svg" xmlns:xlink="http://www.w3.org/1999/xlink" x="0px" y="0px"
	 viewBox="0 0 1024 1024" enable-background="new 0 0 1024 1024" xml:space="preserve">
<g>
	<g>
		<defs>
			<rect id="SVGID_1_" x="1" y="0" width="1023" height="1023"/>
		</defs>
		<clipPath id="SVGID_2_">
			<use xlink:href="#SVGID_1_"  overflow="visible"/>
		</clipPath>
		<g clip-path="url(#SVGID_2_)">
			<defs>
				<rect id="SVGID_3_" x="1" y="0" width="1023" height="1023"/>
			</defs>
			<clipPath id="SVGID_4_">
				<use xlink:href="#SVGID_3_"  overflow="visible"/>
			</clipPath>
			<g clip-path="url(#SVGID_4_)">
				<defs>
					<rect id="SVGID_5_" x="1" y="0" width="1023" height="1023"/>
				</defs>
				<clipPath id="SVGID_6_">
					<use xlink:href="#SVGID_5_"  overflow="visible"/>
				</clipPath>
				<g display="none" opacity="0.62" clip-path="url(#SVGID_6_)">
					<g display="inline">
						<defs>
							<rect id="SVGID_7_" x="156.2" y="-42.9" width="618.7" height="616.2"/>
						</defs>
						<clipPath id="SVGID_8_">
							<use xlink:href="#SVGID_7_"  overflow="visible"/>
						</clipPath>
						<g clip-path="url(#SVGID_8_)">
							<defs>
								<rect id="SVGID_9_" x="156.2" y="-42.9" width="618.7" height="616.2"/>
							</defs>
							<clipPath id="SVGID_10_">
								<use xlink:href="#SVGID_9_"  overflow="visible"/>
							</clipPath>
							<g clip-path="url(#SVGID_10_)">
								
									<image overflow="visible" width="250" height="249" xlink:href="44447C745142DD77.png"  transform="matrix(2.4746 0 0 2.4746 156.1754 -42.8568)">
								</image>
							</g>
						</g>
					</g>
				</g>
				<path clip-path="url(#SVGID_6_)" fill="#FFFFFF" d="M695.9,288.8L512.4,472.3L259.8,219.7c-50.7-50.7-50.7-132.8,0-183.5
					s132.8-50.7,183.5,0L695.9,288.8z"/>
				<g display="none" opacity="0.62" clip-path="url(#SVGID_6_)">
					<g display="inline">
						<defs>
							<rect id="SVGID_11_" x="252.7" y="-40.4" width="618.7" height="616.2"/>
						</defs>
						<clipPath id="SVGID_12_">
							<use xlink:href="#SVGID_11_"  overflow="visible"/>
						</clipPath>
						<g clip-path="url(#SVGID_12_)">
							<defs>
								<rect id="SVGID_13_" x="252.7" y="-40.4" width="618.7" height="616.2"/>
							</defs>
							<clipPath id="SVGID_14_">
								<use xlink:href="#SVGID_13_"  overflow="visible"/>
							</clipPath>
							<g clip-path="url(#SVGID_14_)">
								
									<image overflow="visible" width="250" height="249" xlink:href="44447C745142DD75.png"  transform="matrix(2.4746 0 0 2.4746 252.6852 -40.3822)">
								</image>
							</g>
						</g>
					</g>
				</g>
				<path clip-path="url(#SVGID_6_)" fill="#FFFFFF" d="M513.7,475.1L330.2,291.6L582.9,39c50.7-50.7,132.8-50.7,183.5,0
					c50.7,50.7,50.7,132.8,0,183.5L513.7,475.1z"/>
				<g display="none" opacity="0.62" clip-path="url(#SVGID_6_)">
					<g display="inline">
						<defs>
							<rect id="SVGID_15_" x="-39.3" y="152.6" width="618.7" height="618.7"/>
						</defs>
						<clipPath id="SVGID_16_">
							<use xlink:href="#SVGID_15_"  overflow="visible"/>
						</clipPath>
						<g clip-path="url(#SVGID_16_)">
							<defs>
								<rect id="SVGID_17_" x="-39.3" y="152.6" width="618.7" height="618.7"/>
							</defs>
							<clipPath id="SVGID_18_">
								<use xlink:href="#SVGID_17_"  overflow="visible"/>
							</clipPath>
							<g clip-path="url(#SVGID_18_)">
								
									<image overflow="visible" width="250" height="250" xlink:href="44447C745142DD7B.png"  transform="matrix(2.4746 0 0 2.4746 -39.3186 152.6373)">
								</image>
							</g>
						</g>
					</g>
				</g>
				<path clip-path="url(#SVGID_6_)" fill="#FFFFFF" d="M476.4,509.5L293,692.9L40.4,440.3c-50.7-50.7-50.7-132.8,0-183.5
					c50.7-50.7,132.8-50.7,183.5,0L476.4,509.5z"/>
				<g display="none" opacity="0.62" clip-path="url(#SVGID_6_)">
					<g display="inline">
						<defs>
							<rect id="SVGID_19_" x="-39.3" y="249.1" width="618.7" height="618.7"/>
						</defs>
						<clipPath id="SVGID_20_">
							<use xlink:href="#SVGID_19_"  overflow="visible"/>
						</clipPath>
						<g clip-path="url(#SVGID_20_)">
							<defs>
								<rect id="SVGID_21_" x="-39.3" y="249.1" width="618.7" height="618.7"/>
							</defs>
							<clipPath id="SVGID_22_">
								<use xlink:href="#SVGID_21_"  overflow="visible"/>
							</clipPath>
							<g clip-path="url(#SVGID_22_)">
								
									<image overflow="visible" width="250" height="250" xlink:href="44447C745142DD7D.png"  transform="matrix(2.4746 0 0 2.4746 -39.3186 249.147)">
								</image>
							</g>
						</g>
					</g>
				</g>
				<path clip-path="url(#SVGID_6_)" fill="#FFFFFF" d="M293,327.3l183.5,183.5L223.8,763.4C173.2,814,91,814,40.4,763.4
					s-50.7-132.8,0-183.5L293,327.3z"/>
				<g display="none" opacity="0.62" clip-path="url(#SVGID_6_)">
					<g display="inline">
						<defs>
							<rect id="SVGID_23_" x="250.2" y="449.6" width="618.7" height="616.2"/>
						</defs>
						<clipPath id="SVGID_24_">
							<use xlink:href="#SVGID_23_"  overflow="visible"/>
						</clipPath>
						<g clip-path="url(#SVGID_24_)">
							<defs>
								<rect id="SVGID_25_" x="250.2" y="449.6" width="618.7" height="616.2"/>
							</defs>
							<clipPath id="SVGID_26_">
								<use xlink:href="#SVGID_25_"  overflow="visible"/>
							</clipPath>
							<g clip-path="url(#SVGID_26_)">
								
									<image overflow="visible" width="250" height="249" xlink:href="44447C745142DD7F.png"  transform="matrix(2.4746 0 0 2.4746 250.2105 449.5903)">
								</image>
							</g>
						</g>
					</g>
				</g>
				<path clip-path="url(#SVGID_6_)" fill="#FFFFFF" d="M329.2,734.1l183.5-183.5l252.6,252.6c50.7,50.7,50.7,132.8,0,183.5
					c-50.7,50.7-132.8,50.7-183.5,0L329.2,734.1z"/>
				<g display="none" opacity="0.62" clip-path="url(#SVGID_6_)">
					<g display="inline">
						<defs>
							<rect id="SVGID_27_" x="153.7" y="447.1" width="618.7" height="616.2"/>
						</defs>
						<clipPath id="SVGID_28_">
							<use xlink:href="#SVGID_27_"  overflow="visible"/>
						</clipPath>
						<g clip-path="url(#SVGID_28_)">
							<defs>
								<rect id="SVGID_29_" x="153.7" y="447.1" width="618.7" height="616.2"/>
							</defs>
							<clipPath id="SVGID_30_">
								<use xlink:href="#SVGID_29_"  overflow="visible"/>
							</clipPath>
							<g clip-path="url(#SVGID_30_)">
								
									<image overflow="visible" width="250" height="249" xlink:href="44447C745142DD7C.png"  transform="matrix(2.4746 0 0 2.4746 153.7008 447.1157)">
								</image>
							</g>
						</g>
					</g>
				</g>
				<path clip-path="url(#SVGID_6_)" fill="#FFFFFF" d="M511.3,547.9l183.5,183.5L442.2,983.9c-50.7,50.7-132.8,50.7-183.5,0
					c-50.7-50.7-50.7-132.8,0-183.5L511.3,547.9z"/>
				<g display="none" opacity="0.62" clip-path="url(#SVGID_6_)">
					<g display="inline">
						<defs>
							<rect id="SVGID_31_" x="445.7" y="251.6" width="618.7" height="618.7"/>
						</defs>
						<clipPath id="SVGID_32_">
							<use xlink:href="#SVGID_31_"  overflow="visible"/>
						</clipPath>
						<g clip-path="url(#SVGID_32_)">
							<defs>
								<rect id="SVGID_33_" x="445.7" y="251.6" width="618.7" height="618.7"/>
							</defs>
							<clipPath id="SVGID_34_">
								<use xlink:href="#SVGID_33_"  overflow="visible"/>
							</clipPath>
							<g clip-path="url(#SVGID_34_)">
								
									<image overflow="visible" width="250" height="250" xlink:href="44447C745142DD74.png"  transform="matrix(2.4746 0 0 2.4746 445.7046 251.6216)">
								</image>
							</g>
						</g>
					</g>
				</g>
				<path clip-path="url(#SVGID_6_)" fill="#FFFFFF" d="M548.6,513.5L732.1,330l252.6,252.6c50.7,50.7,50.7,132.8,0,183.5
					c-50.7,50.7-132.8,50.7-183.5,0L548.6,513.5z"/>
				<g display="none" opacity="0.62" clip-path="url(#SVGID_6_)">
					<g display="inline">
						<defs>
							<rect id="SVGID_35_" x="443.2" y="155.1" width="618.7" height="618.7"/>
						</defs>
						<clipPath id="SVGID_36_">
							<use xlink:href="#SVGID_35_"  overflow="visible"/>
						</clipPath>
						<g clip-path="url(#SVGID_36_)">
							<defs>
								<rect id="SVGID_37_" x="443.2" y="155.1" width="618.7" height="618.7"/>
							</defs>
							<clipPath id="SVGID_38_">
								<use xlink:href="#SVGID_37_"  overflow="visible"/>
							</clipPath>
							<g clip-path="url(#SVGID_38_)">
								
									<image overflow="visible" width="250" height="250" xlink:href="44447C745142DD76.png"  transform="matrix(2.4746 0 0 2.4746 443.23 155.1119)">
								</image>
							</g>
						</g>
					</g>
				</g>
				<path clip-path="url(#SVGID_6_)" fill="#FFFFFF" d="M729.3,695.6L545.8,512.2l252.6-252.6c50.7-50.7,132.8-50.7,183.5,0
					c50.7,50.7,50.7,132.8,0,183.5L729.3,695.6z"/>
			</g>
		</g>
	</g>
</g>
</svg>
